<svg xmlns="http://www.w3.org/2000/svg" viewBox="0 0 657.49 575.22"><g id="Layer_2" data-name="Layer 2"><g id="Layer_1-2" data-name="Layer 1"><path d="M280.87,121.7c27.1,0,54.21.52,81.29-.14,28.58-.7,53.3,8.86,73.79,27.85,17.37,16.1,26.92,37.08,28.6,60.9,3.13,44.41-16.32,76.05-55.66,96-6.25,3.17-2.73,6.86-.47,10.32,18.84,28.94,37.81,57.79,56.48,86.83,2.38,3.7,7.84,7.68,5,12.08-2.1,3.24-8.07,1.19-12.29,1.21-18.78.09-37.57-.28-56.35,0-7.57.1-12.4-2.18-16.53-9.09-16.43-27.48-33.61-54.52-50.45-81.76-2.44-4-4.48-8-4.4-13,.24-14.81.33-29.63-.25-44.42-.32-8.27,2.88-10.54,10.72-10.19,9.67.42,19.38.62,29-1.8,15-3.76,26.74-16.62,27.9-31.78,1.37-17.79-7.74-34-23.35-38.61-12.85-3.78-26.51-2.88-39.81-3-43.35-.36-86.71-.28-130.06,0a50.25,50.25,0,0,0-17.93,3.2c-21.82,8.7-24.63,32.75-6,47.12,13.23,10.18,29.19,13.52,44.57,18.37,22.81,7.18,44.85,16,62.49,32.9,18.72,17.94,24.18,40.77,24.1,65.85-.17,52.49-50.64,90.1-97.19,93-29.58,1.86-56.64-3.32-80.86-20.08C109.55,407,94.6,384.59,91.61,355.15,90.88,348,93,344.74,101,345c18,.55,36.13.5,54.18,0,6-.16,8.09,2.13,9.18,7.41,6.11,29.64,42.82,38.13,66.58,18.92,12.74-10.3,9.15-32.92-6.5-43.59-12.43-8.46-26.64-13-40.88-16.6-25.36-6.38-47.43-18.17-66.14-36.23-21.42-20.68-28-66.77-14.53-95.13,18.58-39,50.57-56.62,92.37-57.84,28.51-.83,57.07-.16,85.61-.16Z" style="fill:#0dbc6a"/><path d="M523.78,508.37c-2.29,0-2.74.14-3,0-6.76-4.29-10.5-15.58-18.6-14-6.74,1.27-12.05,9.64-18.19,14.62-41.2,33.47-88.1,53.88-140.57,62-18.83,2.9-37.64,5-56.66,4.14-49.09-2.34-95.62-13.92-138.62-38.5-25.11-14.34-48.14-31.38-68-52.33-37-39.09-62.26-84.51-73.53-137.64-5.49-25.92-7.93-52-6-78.13,4.17-55.55,23.1-105.83,57-150.43C100.85,61.12,157.55,25.34,226.54,8.52c28.82-7,58.26-10,87.74-7.79,60.28,4.58,115.49,24.12,163.88,60.91a291.62,291.62,0,0,1,52.13,51.24c6.16,7.79,4.91,17.15-2.47,22.51-7.54,5.46-15.35,3.43-22.07-4.78-24.35-29.75-53.13-53.82-87.94-70.9-26-12.75-53-22.23-81.43-26.16-52.89-7.31-104.21-.77-153,21.65-33,15.13-62.37,35.36-86.54,62.61-21.74,24.5-40.16,51.47-51,82.44-13.24,37.89-18.35,76.89-13.26,117.36,6.08,48.4,24.67,90.77,54.78,128.74,36.93,46.59,85.2,74.65,142,89.73a253.64,253.64,0,0,0,81,8.35c51-3.15,98.32-18.26,140.3-48.16,8.44-6,17.09-11.81,24.27-19.48,3.69-4,6.39-7.26-.6-10.39a7,7,0,0,1-2.47-2c-2.27-3-7.93-4.76-6-9.13,1.55-3.48,6.53-1.3,10-1.57,12.11-.94,24.39,1.91,36.41-1.75,3.71-1.13,5.49.26,6.69,4.49,3.45,12.14,1,24.4,1.76,36.57C521.08,497.9,520.33,502.92,523.78,508.37Z" style="fill:#0a0a56"/><path d="M657.48,192.94c.1,10.95-5.05,17.36-10.65,22.74C611.47,249.63,577.52,285,543,319.77c-10,10.05-20.59,19.45-30.47,29.58-3.84,3.93-6.16,3.21-9.54-.15-8.39-8.37-16.9-16.64-25.6-24.69-5-4.63-2.72-7.94,1-11.68q29.59-29.47,59-59.1c22.54-22.82,44.9-45.84,67.4-68.7,6.07-6.17,12.37-12,21.18-14.31C642,166.49,657.76,178.58,657.48,192.94Z" style="fill:#0dbc6a"/><path d="M496.66,371.25c-13.31,0-23.68-.14-34,.06-5,.09-7.21-2-7.16-7,.09-10.62,0-21.24,0-34.42Z" style="fill:#0dbc6a"/></g></g></svg>